<svg xmlns="http://www.w3.org/2000/svg" version="1.1" xmlns:xlink="http://www.w3.org/1999/xlink" xmlns:svgjs="http://svgjs.dev/svgjs" width="2000" height="393" viewBox="0 0 2000 393"><g transform="matrix(1,0,0,1,-1.2121212121210192,-1.2501805419560696)"><svg viewBox="0 0 396 78" data-background-color="#292f36" preserveAspectRatio="xMidYMid meet" height="393" width="2000" xmlns="http://www.w3.org/2000/svg" xmlns:xlink="http://www.w3.org/1999/xlink"><g id="tight-bounds" transform="matrix(1,0,0,1,0.23999999999995225,0.2481274358080725)"><svg viewBox="0 0 395.52 77.50374512838387" height="77.50374512838387" width="395.52"><g><svg viewBox="0 0 659.3621887174193 129.20469008305068" height="77.50374512838387" width="395.52"><g transform="matrix(1,0,0,1,263.84218871741933,0)"><svg viewBox="0 0 395.52 129.20469008305068" height="129.20469008305068" width="395.52"><g id="textblocktransform"><svg viewBox="0 0 395.52 129.20469008305068" height="129.20469008305068" width="395.52" id="textblock"><g><svg viewBox="0 0 395.52 82.22279569892473" height="82.22279569892473" width="395.52"><g transform="matrix(1,0,0,1,0,0)"><svg width="395.52" viewBox="3.86 -35.3 217.95 45.309999999999995" height="82.22279569892473" data-palette-color="#ffffff"><g class="wordmark-text-0" data-fill-palette-color="primary" id="text-0"><path d="M3.86 0L3.86-33.15 12.62-33.15 21-12.45 24.34-3.03 24.02-12.45 23.85-33.15 29.13-33.15 29.13 0 20.58 0 12.01-20.75 8.67-30.32 8.98-20.75 9.16 0 3.86 0ZM34.84-12.48L34.84-12.48Q34.84-15.7 35.7-18.16 36.57-20.63 38.14-22.29 39.72-23.95 41.9-24.8 44.09-25.66 46.73-25.66L46.73-25.66Q49.44-25.66 51.61-24.87 53.78-24.07 55.3-22.46 56.81-20.85 57.61-18.44 58.42-16.04 58.42-12.82L58.42-12.82Q58.42-9.59 57.6-7.1 56.78-4.61 55.26-2.93 53.73-1.25 51.57-0.38 49.41 0.49 46.73 0.49L46.73 0.49Q43.94 0.49 41.73-0.33 39.52-1.15 38-2.77 36.47-4.39 35.65-6.82 34.84-9.25 34.84-12.48ZM46.73-3.54L46.73-3.54Q48.34-3.54 49.52-4.24 50.71-4.93 51.46-6.16 52.22-7.4 52.59-9.09 52.95-10.79 52.95-12.82L52.95-12.82Q52.95-17.19 51.46-19.48 49.97-21.78 46.73-21.78L46.73-21.78Q45.09-21.78 43.88-21.08 42.67-20.39 41.88-19.14 41.09-17.9 40.7-16.19 40.31-14.48 40.31-12.48L40.31-12.48Q40.31-8.06 41.88-5.8 43.45-3.54 46.73-3.54ZM63.98-20.48L62.06-22.46 62.06-25.22 66.55-25.22 68.65-23.1 69.31-23.49Q69.43-23.61 70.03-23.96 70.62-24.32 71.53-24.69 72.43-25.07 73.57-25.37 74.7-25.66 75.87-25.66L75.87-25.66Q78.05-25.66 79.45-25.02 80.85-24.39 81.9-23.19L81.9-23.19Q82.29-23.51 83.05-23.94 83.81-24.37 84.8-24.76 85.79-25.15 86.93-25.4 88.08-25.66 89.25-25.66L89.25-25.66Q91.3-25.66 93-25.05 94.7-24.44 95.91-23.3 97.11-22.17 97.79-20.58 98.46-18.99 98.46-17.02L98.46-17.02 98.46 0 93.21 0 93.21-16.5Q93.21-19.14 91.79-20.41 90.38-21.68 87.93-21.68L87.93-21.68Q86.49-21.68 85.24-21.45 83.98-21.22 83.37-20.95L83.37-20.95Q83.71-20.17 83.91-19.29 84.1-18.41 84.1-17.5L84.1-17.5 84.1 0 78.85 0 78.85-16.99Q78.85-19.36 77.88-20.52 76.9-21.68 74.53-21.68L74.53-21.68Q73.41-21.68 72.43-21.47 71.45-21.26 70.75-21L70.75-21Q69.92-20.7 69.21-20.34L69.21-20.34 69.21 0 63.98 0 63.98-20.48ZM103.8-12.48L103.8-12.48Q103.8-15.7 104.67-18.16 105.53-20.63 107.11-22.29 108.68-23.95 110.87-24.8 113.05-25.66 115.69-25.66L115.69-25.66Q118.4-25.66 120.57-24.87 122.75-24.07 124.26-22.46 125.77-20.85 126.58-18.44 127.39-16.04 127.39-12.82L127.39-12.82Q127.39-9.59 126.57-7.1 125.75-4.61 124.22-2.93 122.7-1.25 120.54-0.38 118.38 0.49 115.69 0.49L115.69 0.49Q112.91 0.49 110.7-0.33 108.49-1.15 106.96-2.77 105.44-4.39 104.62-6.82 103.8-9.25 103.8-12.48ZM115.69-3.54L115.69-3.54Q117.3-3.54 118.49-4.24 119.67-4.93 120.43-6.16 121.18-7.4 121.55-9.09 121.92-10.79 121.92-12.82L121.92-12.82Q121.92-17.19 120.43-19.48 118.94-21.78 115.69-21.78L115.69-21.78Q114.06-21.78 112.85-21.08 111.64-20.39 110.84-19.14 110.05-17.9 109.66-16.19 109.27-14.48 109.27-12.48L109.27-12.48Q109.27-8.06 110.84-5.8 112.42-3.54 115.69-3.54ZM132.95 0L132.95-20.48 131.02-22.46 131.02-25.22 135.51-25.22 137.61-23.32 138.32-23.46Q138.49-23.61 139.11-23.97 139.74-24.34 140.65-24.71 141.57-25.07 142.74-25.35 143.91-25.63 145.2-25.63L145.2-25.63Q147.26-25.63 148.85-25.02 150.45-24.41 151.55-23.28 152.65-22.14 153.21-20.56 153.77-18.97 153.77-16.99L153.77-16.99 153.77 0 148.53 0 148.53-16.48Q148.53-19.14 147.41-20.4 146.3-21.66 143.89-21.66L143.89-21.66Q142.69-21.66 141.66-21.45 140.64-21.24 139.86-20.97L139.86-20.97Q138.95-20.68 138.17-20.29L138.17-20.29 138.17 0 132.95 0ZM161.12 1.95L161.12-24.9 166.39-24.9 166.39 2.39Q166.39 3.93 166 5.14 165.61 6.35 164.75 7.29 163.88 8.23 162.5 8.9 161.12 9.57 159.14 10.01L159.14 10.01Q158.68 9.3 158.42 8.69 158.17 8.08 158.04 7.67L158.04 7.67Q157.9 7.18 157.82 6.79L157.82 6.79Q159.44 6.42 160.28 5.25 161.12 4.08 161.12 1.95L161.12 1.95ZM163.85-29.17L163.85-29.17Q163.17-29.17 162.57-29.42 161.97-29.66 161.52-30.08 161.07-30.49 160.82-31.04 160.56-31.59 160.56-32.23L160.56-32.23Q160.56-32.89 160.82-33.45 161.07-34.01 161.52-34.42 161.97-34.84 162.57-35.07 163.17-35.3 163.85-35.3L163.85-35.3Q164.54-35.3 165.15-35.07 165.76-34.84 166.22-34.42 166.69-34.01 166.96-33.45 167.22-32.89 167.22-32.23L167.22-32.23Q167.22-31.59 166.96-31.04 166.69-30.49 166.22-30.08 165.76-29.66 165.15-29.42 164.54-29.17 163.85-29.17ZM171.84-12.48L171.84-12.48Q171.84-15.7 172.7-18.16 173.57-20.63 175.14-22.29 176.72-23.95 178.9-24.8 181.09-25.66 183.73-25.66L183.73-25.66Q186.44-25.66 188.61-24.87 190.78-24.07 192.29-22.46 193.81-20.85 194.61-18.44 195.42-16.04 195.42-12.82L195.42-12.82Q195.42-9.59 194.6-7.1 193.78-4.61 192.26-2.93 190.73-1.25 188.57-0.38 186.41 0.49 183.73 0.49L183.73 0.49Q180.94 0.49 178.73-0.33 176.52-1.15 175-2.77 173.47-4.39 172.65-6.82 171.84-9.25 171.84-12.48ZM183.73-3.54L183.73-3.54Q185.34-3.54 186.52-4.24 187.7-4.93 188.46-6.16 189.22-7.4 189.58-9.09 189.95-10.79 189.95-12.82L189.95-12.82Q189.95-17.19 188.46-19.48 186.97-21.78 183.73-21.78L183.73-21.78Q182.09-21.78 180.88-21.08 179.67-20.39 178.88-19.14 178.09-17.9 177.69-16.19 177.3-14.48 177.3-12.48L177.3-12.48Q177.3-8.06 178.88-5.8 180.45-3.54 183.73-3.54ZM200.98 0L200.98-20.48 199.05-22.46 199.05-25.22 203.55-25.22 205.65-23.32 206.35-23.46Q206.53-23.61 207.15-23.97 207.77-24.34 208.69-24.71 209.6-25.07 210.77-25.35 211.95-25.63 213.24-25.63L213.24-25.63Q215.29-25.63 216.89-25.02 218.49-24.41 219.59-23.28 220.69-22.14 221.25-20.56 221.81-18.97 221.81-16.99L221.81-16.99 221.81 0 216.56 0 216.56-16.48Q216.56-19.14 215.45-20.4 214.34-21.66 211.92-21.66L211.92-21.66Q210.72-21.66 209.7-21.45 208.67-21.24 207.89-20.97L207.89-20.97Q206.99-20.68 206.21-20.29L206.21-20.29 206.21 0 200.98 0Z" fill="#ffffff" data-fill-palette-color="primary"></path></g></svg></g></svg></g><g transform="matrix(1,0,0,1,0,101.63362441634408)"><svg viewBox="0 0 247.99103999999997 27.571065666706595" height="27.571065666706595" width="247.99103999999997"><g transform="matrix(1,0,0,1,0,0)"><svg width="247.99103999999997" viewBox="3.25 -35 414.31 46.4" height="27.571065666706595" data-palette-color="#ffffff"><g class="slogan-text-1" data-fill-palette-color="secondary" id="text-1"><path d="M7.95-26L7.95-26 7.95-19.3 17.25-19.3 17.25-14.9 7.95-14.9 7.95 0 3.25 0 3.25-26.65Q3.25-30.35 5.6-32.6L5.6-32.6Q7.2-34.1 9.2-34.55 11.2-35 14.1-35L14.1-35 19.4-35 19.4-30.6 13.45-30.6Q7.95-30.6 7.95-26ZM27.05 0L22.65 0 22.65-13.65Q22.65-19.4 24.8-21.6L24.8-21.6Q25.85-22.7 27.35-23.25 28.85-23.8 29.97-23.9 31.1-24 33.05-24L33.05-24 37.45-24 37.45-19.8 32.15-19.8Q31.15-19.8 30.6-19.75 30.05-19.7 29.3-19.4 28.55-19.1 28-18.45L28-18.45Q27.05-17.25 27.05-13.65L27.05-13.65 27.05 0ZM43.45-20.85L43.45-20.85Q46.95-24.5 52.2-24.5L52.2-24.5Q54.75-24.5 56.97-23.53 59.2-22.55 60.87-20.85 62.55-19.15 63.5-16.88 64.45-14.6 64.45-12L64.45-12Q64.45-9.4 63.52-7.13 62.6-4.85 60.95-3.15 59.3-1.45 57.05-0.48 54.8 0.5 52.2 0.5L52.2 0.5Q49.55 0.5 47.32-0.48 45.1-1.45 43.45-3.15 41.8-4.85 40.87-7.13 39.95-9.4 39.95-12L39.95-12Q39.95-17.3 43.45-20.85ZM52.2-20.3L52.2-20.3Q48.7-20.3 46.57-18 44.45-15.7 44.45-12 44.45-8.3 46.57-6 48.7-3.7 52.2-3.7L52.2-3.7Q55.75-3.7 57.85-6.03 59.95-8.35 59.95-12 59.95-15.65 57.85-17.98 55.75-20.3 52.2-20.3ZM69.94 0L69.94-24 78.59-24Q84.14-24 86.54-22.35L86.54-22.35Q88.69-20.9 89.27-18.88 89.84-16.85 89.84-13.55L89.84-13.55 89.84 0 85.44 0 85.44-13.5Q85.44-14.4 85.39-15.03 85.34-15.65 85.04-16.63 84.74-17.6 84.19-18.23 83.64-18.85 82.59-19.33 81.54-19.8 80.04-19.8L80.04-19.8 74.34-19.8 74.34 0 69.94 0ZM97.79-19.8L93.34-19.8 102.29-28.75 102.29-24 109.04-24 109.04-19.8 102.29-19.8 102.29-9.5Q102.29-7.75 102.87-6.6 103.44-5.45 104.54-4.98 105.64-4.5 106.62-4.35 107.59-4.2 109.04-4.2L109.04-4.2 109.04 0Q103.29 0 100.54-2.2 97.79-4.4 97.79-9.5L97.79-9.5 97.79-19.8ZM125.54-24.5L125.54-24.5Q134.04-24.15 134.04-17.45L134.04-17.45Q134.04-9.1 123.09-9.1L123.09-9.1 121.04-9.1 121.04-12.95 123.44-12.95Q126.79-12.95 128.09-13.98 129.39-15 129.39-17.4L129.39-17.4Q129.39-18.95 128.24-19.73 127.09-20.5 125.29-20.5L125.29-20.5Q121.74-20.5 119.71-18 117.69-15.5 117.69-12L117.69-12Q117.69-8.3 119.86-6 122.04-3.7 125.54-3.7L125.54-3.7Q128.69-3.7 130.69-5.25L130.69-5.25 133.69-2.3Q130.24 0.5 125.54 0.5L125.54 0.5Q119.84 0.5 116.44-2.85 113.04-6.2 113.04-11.5L113.04-11.5Q113.04-17.4 116.39-21.05 119.74-24.7 125.54-24.5ZM139.29 0L139.29-24 147.94-24Q153.49-24 155.89-22.35L155.89-22.35Q158.04-20.9 158.61-18.88 159.19-16.85 159.19-13.55L159.19-13.55 159.19 0 154.79 0 154.79-13.5Q154.79-14.4 154.74-15.03 154.69-15.65 154.39-16.63 154.09-17.6 153.54-18.23 152.99-18.85 151.94-19.33 150.89-19.8 149.39-19.8L149.39-19.8 143.69-19.8 143.69 0 139.29 0ZM183.93-4.2L183.93-35 188.43-35 188.43 0 176.68 0Q171.23 0 167.83-3.48 164.43-6.95 164.43-12.25L164.43-12.25Q164.43-17.45 167.96-20.98 171.48-24.5 176.33-24.5L176.33-24.5Q179.43-24.5 182.13-23L182.13-23 182.13-18.5Q179.63-20.3 176.33-20.3L176.33-20.3Q173.33-20.3 171.26-18.07 169.18-15.85 169.18-12.25L169.18-12.25Q169.18-8.6 171.16-6.4 173.13-4.2 176.68-4.2L176.68-4.2 183.93-4.2Z" fill="#ffffff" data-fill-palette-color="primary"></path><path d="M221.83-4.2L221.83-35 226.33-35 226.33 0 214.58 0Q209.13 0 205.73-3.48 202.33-6.95 202.33-12.25L202.33-12.25Q202.33-17.45 205.85-20.98 209.38-24.5 214.23-24.5L214.23-24.5Q217.33-24.5 220.03-23L220.03-23 220.03-18.5Q217.53-20.3 214.23-20.3L214.23-20.3Q211.23-20.3 209.15-18.07 207.08-15.85 207.08-12.25L207.08-12.25Q207.08-8.6 209.05-6.4 211.03-4.2 214.58-4.2L214.58-4.2 221.83-4.2ZM244.08-24.5L244.08-24.5Q252.58-24.15 252.58-17.45L252.58-17.45Q252.58-9.1 241.63-9.1L241.63-9.1 239.58-9.1 239.58-12.95 241.98-12.95Q245.33-12.95 246.63-13.98 247.93-15 247.93-17.4L247.93-17.4Q247.93-18.95 246.77-19.73 245.63-20.5 243.83-20.5L243.83-20.5Q240.28-20.5 238.25-18 236.23-15.5 236.23-12L236.23-12Q236.23-8.3 238.4-6 240.58-3.7 244.08-3.7L244.08-3.7Q247.23-3.7 249.23-5.25L249.23-5.25 252.23-2.3Q248.78 0.5 244.08 0.5L244.08 0.5Q238.38 0.5 234.98-2.85 231.58-6.2 231.58-11.5L231.58-11.5Q231.58-17.4 234.93-21.05 238.28-24.7 244.08-24.5ZM266.17 0.55L266.17 0.55Q261.87-3.5 259.85-8.4 257.82-13.3 255.82-24L255.82-24 260.42-24Q262.37-11.95 266.17-5.75L266.17-5.75Q269.97-11.95 271.92-24L271.92-24 276.52-24Q274.52-13.3 272.5-8.4 270.47-3.5 266.17 0.55ZM292.52-24.5L292.52-24.5Q301.02-24.15 301.02-17.45L301.02-17.45Q301.02-9.1 290.07-9.1L290.07-9.1 288.02-9.1 288.02-12.95 290.42-12.95Q293.77-12.95 295.07-13.98 296.37-15 296.37-17.4L296.37-17.4Q296.37-18.95 295.22-19.73 294.07-20.5 292.27-20.5L292.27-20.5Q288.72-20.5 286.7-18 284.67-15.5 284.67-12L284.67-12Q284.67-8.3 286.85-6 289.02-3.7 292.52-3.7L292.52-3.7Q295.67-3.7 297.67-5.25L297.67-5.25 300.67-2.3Q297.22 0.5 292.52 0.5L292.52 0.5Q286.82 0.5 283.42-2.85 280.02-6.2 280.02-11.5L280.02-11.5Q280.02-17.4 283.37-21.05 286.72-24.7 292.52-24.5ZM306.02-9.5L306.02-9.5 306.02-35 310.52-35 310.52-9.5Q310.52-7.7 310.94-6.58 311.37-5.45 312.27-4.98 313.17-4.5 314.02-4.35 314.87-4.2 316.27-4.2L316.27-4.2 316.27 0Q310.67 0 308.34-2.15 306.02-4.3 306.02-9.5ZM322.27-20.85L322.27-20.85Q325.77-24.5 331.02-24.5L331.02-24.5Q333.57-24.5 335.79-23.53 338.02-22.55 339.69-20.85 341.37-19.15 342.32-16.88 343.27-14.6 343.27-12L343.27-12Q343.27-9.4 342.34-7.13 341.42-4.85 339.77-3.15 338.12-1.45 335.87-0.48 333.62 0.5 331.02 0.5L331.02 0.5Q328.37 0.5 326.14-0.48 323.92-1.45 322.27-3.15 320.62-4.85 319.69-7.13 318.77-9.4 318.77-12L318.77-12Q318.77-17.3 322.27-20.85ZM331.02-20.3L331.02-20.3Q327.52-20.3 325.39-18 323.27-15.7 323.27-12 323.27-8.3 325.39-6 327.52-3.7 331.02-3.7L331.02-3.7Q334.57-3.7 336.67-6.03 338.77-8.35 338.77-12 338.77-15.65 336.67-17.98 334.57-20.3 331.02-20.3ZM353.01 11.4L348.51 11.4 348.51-12Q348.51-14.6 349.46-16.9 350.41-19.2 352.06-20.88 353.71-22.55 355.96-23.53 358.21-24.5 360.76-24.5L360.76-24.5Q363.31-24.5 365.54-23.53 367.76-22.55 369.44-20.85 371.11-19.15 372.06-16.88 373.01-14.6 373.01-12L373.01-12Q373.01-9.4 372.09-7.13 371.16-4.85 369.51-3.15 367.86-1.45 365.61-0.48 363.36 0.5 360.76 0.5L360.76 0.5Q357.56 0.5 354.81-1L354.81-1 354.81-5.5Q357.26-3.7 360.61-3.7L360.61-3.7Q362.41-3.7 363.89-4.33 365.36-4.95 366.39-6.05 367.41-7.15 367.96-8.68 368.51-10.2 368.51-12L368.51-12Q368.51-13.8 367.96-15.33 367.41-16.85 366.41-17.95 365.41-19.05 363.99-19.68 362.56-20.3 360.76-20.3L360.76-20.3Q359.01-20.3 357.59-19.7 356.16-19.1 355.14-18 354.11-16.9 353.56-15.38 353.01-13.85 353.01-12L353.01-12 353.01 11.4ZM390.01-24.5L390.01-24.5Q398.51-24.15 398.51-17.45L398.51-17.45Q398.51-9.1 387.56-9.1L387.56-9.1 385.51-9.1 385.51-12.95 387.91-12.95Q391.26-12.95 392.56-13.98 393.86-15 393.86-17.4L393.86-17.4Q393.86-18.95 392.71-19.73 391.56-20.5 389.76-20.5L389.76-20.5Q386.21-20.5 384.19-18 382.16-15.5 382.16-12L382.16-12Q382.16-8.3 384.34-6 386.51-3.7 390.01-3.7L390.01-3.7Q393.16-3.7 395.16-5.25L395.16-5.25 398.16-2.3Q394.71 0.5 390.01 0.5L390.01 0.5Q384.31 0.5 380.91-2.85 377.51-6.2 377.51-11.5L377.51-11.5Q377.51-17.4 380.86-21.05 384.21-24.7 390.01-24.5ZM407.16 0L402.76 0 402.76-13.65Q402.76-19.4 404.91-21.6L404.91-21.6Q405.96-22.7 407.46-23.25 408.96-23.8 410.08-23.9 411.21-24 413.16-24L413.16-24 417.56-24 417.56-19.8 412.26-19.8Q411.26-19.8 410.71-19.75 410.16-19.7 409.41-19.4 408.66-19.1 408.11-18.45L408.11-18.45Q407.16-17.25 407.16-13.65L407.16-13.65 407.16 0Z" fill="#ffffff" data-fill-palette-color="secondary"></path></g></svg></g></svg></g></svg></g></svg></g><g transform="matrix(1,0,0,1,0,1.7627039079221092)"><svg viewBox="0 0 244.43135999999998 125.67928226720646" height="125.67928226720646" width="244.43135999999998"><g><svg xmlns="http://www.w3.org/2000/svg" xmlns:xlink="http://www.w3.org/1999/xlink" version="1.1" x="0" y="0" viewBox="0.6 24.6 98.80000000000001 50.800000000000004" enable-background="new 0 0 100 100" xml:space="preserve" height="125.67928226720646" width="244.43135999999998" class="icon-icon-0" data-fill-palette-color="accent" id="icon-0"><path d="M46.5 75.4V70.8C46.5 68.8 47.4 66.9 49 65.6 50.4 64.5 51.7 63.5 53 62.6H11.1V30.8H60.9V37.9C62.3 37.2 63.8 36.7 65.4 36.7H67V30.8C67 27.4 64.2 24.6 60.8 24.6H11.2C7.8 24.6 5 27.4 5 30.8V62.2C5 63 4.7 63.8 4.2 64.4L1 68.3C0.8 68.6 0.6 69 0.6 69.3V71.1C0.6 73.4 2.5 75.3 4.8 75.3H46.5zM29.3 68.8H42.7V69.3C42.7 70.5 41.7 71.4 40.6 71.4H31.5C30.3 71.4 29.4 70.4 29.4 69.3V68.8zM98.4 64.5C99 65 99.4 65.8 99.4 66.7V70.7H86.2C86.1 68.7 85.2 66.8 83.7 65.5 81.5 63.7 79.2 62.2 77.4 61.1 79 60.1 80.2 59.5 80.6 59.3 80.7 59.3 80.7 59.2 80.7 59.1V53.5C80 53 79.5 52.2 79.5 51.3V45.5C79.5 42.6 81.8 40.3 84.7 40.3H86C88.9 40.3 91.2 42.6 91.2 45.5V51.3C91.2 52.2 90.7 53 90 53.5V59C90 59.1 90.1 59.2 90.1 59.2 90.9 59.6 94.8 61.5 98.4 64.5M71.6 55.5V61.9C71.6 62 71.7 62.1 71.8 62.2 72.7 62.6 77.2 64.9 81.3 68.3 82 68.9 82.5 69.8 82.5 70.8V75.4H68.4L67 69C69.8 65.1 66.8 64.9 66.3 64.9S62.7 65.1 65.6 69L64.2 75.4H50V70.8C50 69.8 50.4 68.9 51.2 68.3 55.3 64.9 59.8 62.6 60.7 62.2 60.8 62.1 60.9 62 60.9 61.9V55.5C60 54.9 59.5 54 59.5 53V46.3C59.5 43 62.2 40.3 65.5 40.3H66.9C70.2 40.3 72.9 43 72.9 46.3V53C73 54 72.4 54.9 71.6 55.5" fill="#ffffff" data-fill-palette-color="accent"></path></svg></g></svg></g></svg></g><defs></defs></svg><rect width="395.52" height="77.50374512838387" fill="none" stroke="none" visibility="hidden"></rect></g></svg></g></svg>